PathFileType	4	(X/Y/Z)	C:\Users\°ÂÌØÂü\Desktop\20210112\bx_y_5_1801-Unnamed.trc
DataRate	CameraRate	NumFrames	NumMarkers	Units	OrigDataRate	OrigDataStartFrame	OrigNumFrames
50.00	50.00	       5	0	mm	50.00	419	       558
Frame#	Time	
		

419	8.360	-712.48480	310.81543	619.54248	-517.36359	-72.71554	142.90067	-794.25861	298.35449	714.65411	-587.53589	-58.08221	519.96179	-702.29822	80.93715	209.31940	-544.33081	187.41292	542.63818	-586.53986	293.06451	525.38055	-546.52045	-9.94274	470.83380	-599.79773	-62.01003	559.97479				-664.00061	-64.62932	164.89183	-674.59113	-78.98641	613.66638	-624.77386	-76.97049	160.70296	-762.30841	222.89310	204.56447	-882.94519	295.97037	144.67206	-559.97827	51.16697	545.80377	-600.77905	20.33219	164.89778	-558.74683	-43.30957	162.52116	-673.57306	173.09914	154.00055	-593.42102	222.88960	172.47971	-666.70612	298.38843	160.55630	-629.81396	307.22397	161.07178	-561.34308	262.97510	164.22009	-528.21753	304.31134	146.43204	-256.23099	143.55336	1203.19385	-465.49661	299.83975	996.24890	-534.18799	247.56233	484.16238	-791.04102	168.80942	187.81927	-756.16370	-1.19132	209.05566	-789.24164	63.16616	177.67712	-791.42572	-78.97184	701.51569	-655.26581	-55.36527	461.01376	-875.97589	-78.81084	141.28232	-715.06256	-18.14653	731.02478	-440.97556	-28.23352	993.77454	-643.33582	289.45923	468.19446	-672.07684	56.79466	153.68988																-1022.14801	99.90388	811.85657	
420	8.380	-713.26947	310.74887	623.61981	-516.70758	-73.62196	143.78639	-792.80804	298.26007	720.36810	-589.50665	-58.44722	521.68378	-702.02820	80.53722	209.36905	-545.64197	187.08141	543.79431	-588.18829	292.14587	526.77936	-548.42267	-10.09514	471.98413	-601.27386	-61.99677	561.55591				-664.31580	-64.98454	164.93741	-675.26318	-79.02722	616.65387	-624.89374	-77.26800	160.87935	-762.56183	222.95915	204.60356	-882.95819	296.13895	144.80301	-561.56036	50.72572	546.93219	-600.89832	20.33911	165.03975	-559.23676	-43.00097	161.84698	-673.99707	174.38019	154.09409	-593.61267	222.89957	172.55869	-666.62610	298.30878	160.42950	-629.74561	307.12411	161.06891	-561.61505	262.96130	164.32324	-528.24243	304.18292	146.41551	-257.84009	143.11972	1218.36511	-465.87006	299.29654	1009.74603	-535.80096	247.12498	484.85083	-791.02643	168.88026	187.91776	-756.23553	-1.35907	209.07173	-788.98035	62.73172	177.36267	-790.65839	-79.12696	707.39832	-657.24115	-55.54941	461.44113	-875.97589	-78.81084	141.28232	-713.27637	-19.17502	735.19208	-441.53192	-29.44648	1007.82507	-644.66675	289.08154	469.22214	-672.01337	56.75897	153.95004																-1019.87494	99.71349	821.02966	
421	8.400	-713.02307	310.55765	627.44617				-791.22394	298.34903	727.09570	-591.55188	-58.63098	522.20471	-702.03235	80.47418	209.25142	-547.06506	186.51289	544.73450	-589.93359	291.12549	528.15967	-550.47473	-10.71549	472.78265	-603.62152	-62.47734	563.13544	-701.75647	152.12053	209.11177	-664.55359	-65.38328	165.14319	-676.55554	-79.15218	619.95892	-625.18427	-77.33141	160.39114	-762.55591	223.40800	205.00702	-882.54413	296.10565	144.69302	-563.24060	49.74299	547.52264	-600.59399	20.15354	165.34883	-559.00446	-43.22536	162.18832	-673.66949	173.42323	153.51109	-593.66193	222.94669	172.68939	-666.65430	298.42386	160.60454	-629.67169	307.21207	161.14832	-561.71155	262.87323	164.44026	-528.24243	304.18292	146.41551	-259.81641	142.17885	1234.55530	-466.09485	299.31583	1023.75800	-536.95697	246.74434	485.97559	-791.14417	168.90799	187.64041	-756.57886	-1.56938	209.08710	-789.13550	62.64380	177.40419	-789.66351	-79.04460	713.04657	-658.94977	-55.32021	462.55563	-875.99457	-78.94872	141.12155	-711.18292	-19.51297	739.19336	-442.55350	-30.72734	1022.33203	-646.02521	288.45264	469.90643	-672.18243	56.55852	153.87865	-720.63159	235.51964	744.84265													-1017.35571	99.87154	830.70270	
422	8.420							-789.78137	297.55942	732.91577	-594.25330	-58.42619	523.37311	-702.02643	80.11870	209.57535	-548.36151	185.84012	546.04907	-591.16949	290.07895	529.19312	-552.47137	-11.46796	473.66028	-605.87250	-62.15585	564.53955	-701.54437	151.33614	210.11180	-664.96198	-65.48215	164.66957	-677.06342	-79.85600	623.52576	-625.25848	-77.57150	160.40231	-762.80872	223.33105	204.75499	-882.53406	296.09598	144.57982	-564.64117	50.07254	548.92914	-600.65607	20.08153	165.27977	-558.94482	-43.24618	162.22888	-673.81195	173.49739	153.35149	-593.72577	222.98026	172.63223	-666.67065	298.33041	160.63814	-629.74011	307.31192	161.15118	-561.66382	262.59116	163.99509	-528.27325	304.36093	146.42050	-262.20663	141.46097	1251.83997	-466.32458	299.16379	1038.10474	-539.17236	245.38173	487.44473	-791.07300	169.06274	187.75725	-756.43646	-1.47968	209.03403	-789.34479	62.73145	177.56462	-788.43256	-79.37384	719.50427	-660.80927	-55.33942	462.68652	-875.97748	-78.88188	141.21204	-709.22534	-19.93585	743.12421	-443.64417	-31.49193	1037.40930	-647.54126	287.95721	471.25668	-671.99457	56.39960	153.98228	-719.08807	234.98235	750.04822													-1014.70697	99.72372	840.75140	
423	8.440							-787.82172	297.35059	739.25409	-595.92291	-59.03205	525.23206	-702.43372	80.20528	210.37321	-550.71320	185.33984	546.55762	-593.09009	289.43958	531.03131	-554.44965	-11.75063	475.30478	-607.48560	-62.28096	566.55658				-664.68341	-65.56253	164.65614	-677.80609	-80.02496	626.87695	-625.02887	-77.73728	160.38190	-762.94299	223.50800	204.81477	-882.39105	295.99826	144.61118	-567.08441	49.26688	548.93225	-600.51184	20.11696	165.42577	-558.96564	-43.21837	162.20154	-673.74292	173.04630	154.00792	-593.74976	223.03365	172.70357	-666.68768	298.42029	160.40254	-629.62988	307.16501	161.15797	-561.61603	262.89261	164.41533	-528.09210	304.44748	146.51723	-264.76306	140.72131	1269.68665	-466.48499	298.91983	1053.14563	-541.06152	245.03857	488.23737	-791.20929	169.15326	187.59431	-756.73749	-1.43565	209.03629	-789.34070	62.49277	177.60916	-787.08643	-78.88282	726.29944	-663.21344	-55.69654	463.65811	-876.01788	-78.74021	141.33287	-707.17352	-20.22820	747.77979	-444.40454	-32.68259	1053.39307	-649.52600	287.12970	472.06238	-671.99457	56.39960	153.98228	-716.97760	234.21828	754.24481													-1011.85425	99.88928	850.60052	
